Coordinates
version=1
nRows=24
nColumns=22
inDegrees=yes

Units are S.I. units (second, meters, Newtons, ...)
If the header above contains a line with 'inDegrees', this indicates whether rotational values are in degrees (yes) or radians (no).

endheader
time	pelvis_tilt	pelvis_list	pelvis_rotation	pelvis_tx	pelvis_ty	pelvis_tz	hip_flexion_r	hip_adduction_r	hip_rotation_r	knee_angle_r	ankle_angle_r	subtalar_angle_r	hip_flexion_l	hip_adduction_l	hip_rotation_l	knee_angle_l	ankle_angle_l	subtalar_angle_l	lumbar_extension	lumbar_bending	lumbar_rotation
      0.01000000	    -10.01996385	      3.27480795	    -31.23218075	     -1.51252376	      0.88379533	     -0.25441104	     10.00017256	     -0.85825961	      1.19470394	     -6.93525626	     11.58107622	      2.67475837	     10.58644244	     -5.48199786	     -9.07623801	    -14.36433340	     15.52311707	      3.00415428	      4.29098471	     -1.09945736	     14.08808508
      0.02000000	    -10.01944473	      3.27857031	    -31.24858329	     -1.51245994	      0.88376768	     -0.25426594	      9.98949349	     -0.85516031	      1.20763966	     -6.93250255	     11.59150196	      2.67494840	     10.57011530	     -5.48537779	     -9.08483609	    -14.35204584	     15.52810635	      3.00686093	      4.29929585	     -1.09377190	     14.05603037
      0.03000000	     -9.99328218	      3.26034819	    -31.27506928	     -1.51235152	      0.88378297	     -0.25406899	      9.91651236	     -0.84425775	      1.24573132	     -6.88718774	     11.59812568	      2.67174359	     10.50664919	     -5.49739245	     -9.10360978	    -14.33187059	     15.54697077	      3.02545615	      4.27466353	     -1.07888283	     14.03767500
      0.04000000	     -9.99120805	      3.26505403	    -31.29573910	     -1.51227054	      0.88374954	     -0.25388022	      9.89734618	     -0.84043443	      1.25914726	     -6.87583446	     11.59996297	      2.66976718	     10.48270764	     -5.50193193	     -9.12001816	    -14.31379647	     15.55460638	      3.02857318	      4.28511162	     -1.07084854	     13.99380424
      0.05000000	     -9.98746401	      3.26823072	    -31.32092654	     -1.51219765	      0.88371845	     -0.25368619	      9.86511110	     -0.83514783	      1.28483565	     -6.84190783	     11.61060740	      2.66598828	     10.45410473	     -5.50743813	     -9.13550572	    -14.29170019	     15.56796907	      3.03202681	      4.29082708	     -1.05784126	     13.94874016
      0.06000000	     -9.94795626	      3.24740549	    -31.35233837	     -1.51209473	      0.88375628	     -0.25346079	      9.75480206	     -0.82613835	      1.33641235	     -6.75015799	     11.59624298	      2.64252168	     10.36997873	     -5.51517872	     -9.14705202	    -14.26182036	     15.58236959	      3.04507611	      4.24987973	     -1.04263876	     13.93273722
      0.07000000	     -9.94835862	      3.25804500	    -31.37221970	     -1.51204975	      0.88371843	     -0.25328303	      9.74401599	     -0.82505075	      1.34446481	     -6.73876658	     11.60232864	      2.63774652	     10.35023956	     -5.51545974	     -9.16556199	    -14.23590248	     15.58720729	      3.04584379	      4.26053924	     -1.03179630	     13.88203000
      0.08000000	     -9.93167985	      3.26288136	    -31.38592179	     -1.51196859	      0.88370993	     -0.25310004	      9.68313545	     -0.83007123	      1.37677196	     -6.67361698	     11.61359562	      2.61089320	     10.30223832	     -5.50758448	     -9.16265094	    -14.19601309	     15.58611057	      3.05122936	      4.25643264	     -1.02553997	     13.84213575
      0.09000000	     -9.93476417	      3.27546129	    -31.39874287	     -1.51194830	      0.88367208	     -0.25293798	      9.67805579	     -0.82916462	      1.38429040	     -6.66142054	     11.61950561	      2.60443374	     10.28449913	     -5.50628993	     -9.18249518	    -14.16386247	     15.59133758	      3.05149094	      4.26750191	     -1.01528071	     13.78922656
      0.10000000	     -9.93992785	      3.29043850	    -31.40440769	     -1.51192623	      0.88363095	     -0.25278736	      9.66962241	     -0.83121713	      1.39575791	     -6.63763522	     11.63403512	      2.59562485	     10.26835787	     -5.50216023	     -9.19381231	    -14.12629498	     15.59422535	      3.05302913	      4.28348458	     -1.00701870	     13.73890211
      0.11000000	     -9.94602810	      3.30691994	    -31.40426894	     -1.51190627	      0.88358761	     -0.25264947	      9.66410723	     -0.83477476	      1.40621647	     -6.61541021	     11.64922651	      2.58538354	     10.25243370	     -5.49524421	     -9.20148881	    -14.08431105	     15.59503613	      3.05576537	      4.30132227	     -1.00089616	     13.68686587
      0.12000000	     -9.94583426	      3.33238587	    -31.38790426	     -1.51187486	      0.88355095	     -0.25255312	      9.65123177	     -0.85495556	      1.40843076	     -6.58128465	     11.67384168	      2.54679194	     10.22809537	     -5.46838600	     -9.16856400	    -14.01957683	     15.57264314	      3.06948032	      4.31683306	     -1.00875184	     13.63223889
      0.13000000	     -9.95228338	      3.34513406	    -31.38001747	     -1.51188004	      0.88351054	     -0.25244589	      9.65691086	     -0.85634069	      1.41368678	     -6.57882533	     11.68382665	      2.53791239	     10.21378258	     -5.46483626	     -9.18680526	    -13.97743415	     15.57633117	      3.07212619	      4.32851380	     -1.00203763	     13.57826702
      0.14000000	     -9.96001884	      3.36055993	    -31.36666973	     -1.51188220	      0.88346412	     -0.25235567	      9.66405701	     -0.86153112	      1.42015880	     -6.57395938	     11.70385716	      2.52643031	     10.19820341	     -5.45706808	     -9.19174819	    -13.92431279	     15.57542920	      3.07757071	      4.34353947	     -0.99762201	     13.52276300
      0.15000000	     -9.95971754	      3.38775093	    -31.33830987	     -1.51187409	      0.88342376	     -0.25230898	      9.67438177	     -0.88640766	      1.40910648	     -6.57741869	     11.75073832	      2.48882630	     10.17100947	     -5.42396675	     -9.14284142	    -13.84237835	     15.54425546	      3.09858064	      4.35457963	     -1.01179255	     13.46644292
      0.16000000	     -9.96396568	      3.39761330	    -31.32082393	     -1.51188773	      0.88338410	     -0.25223651	      9.68452470	     -0.88942898	      1.41997690	     -6.58728222	     11.76129893	      2.48113574	     10.15328188	     -5.42005938	     -9.16153003	    -13.79325970	     15.54741961	      3.10198358	      4.35996958	     -1.00708950	     13.40782398
      0.17000000	     -9.95666738	      3.41905501	    -31.29292602	     -1.51188671	      0.88335181	     -0.25219778	      9.69630185	     -0.91334101	      1.41093123	     -6.60908461	     11.81934760	      2.45018779	     10.10992684	     -5.38853423	     -9.11988034	    -13.69620313	     15.51805995	      3.12151396	      4.35716272	     -1.02135206	     13.34847026
      0.18000000	     -9.96007092	      3.42827659	    -31.27164354	     -1.51190032	      0.88331201	     -0.25214433	      9.70911103	     -0.91857012	      1.42447376	     -6.62347352	     11.83187581	      2.44395325	     10.08830717	     -5.38343909	     -9.13882271	    -13.63934946	     15.52101817	      3.12504383	      4.35608194	     -1.01786382	     13.28245557
      0.19000000	     -9.94536452	      3.45020919	    -31.23807608	     -1.51188877	      0.88328872	     -0.25212574	      9.72111734	     -0.94931085	      1.40628037	     -6.65846186	     11.90317215	      2.41776227	     10.03014421	     -5.34380052	     -9.08858393	    -13.52392626	     15.48485536	      3.14658927	      4.34014299	     -1.03793121	     13.21049139
      0.20000000	     -9.93493105	      3.46673153	    -31.20359796	     -1.51187244	      0.88326425	     -0.25210839	      9.73004398	     -0.97315199	      1.39584111	     -6.68577504	     11.94527040	      2.39917362	      9.98361254	     -5.31529810	     -9.07270158	    -13.43045654	     15.46337687	      3.16271609	      4.32320002	     -1.04971146	     13.12665704
      0.21000000	     -9.93049086	      3.48243990	    -31.16622950	     -1.51185235	      0.88323604	     -0.25209975	      9.74364936	     -0.99389718	      1.38521760	     -6.71323639	     11.98470832	      2.38430626	      9.94204958	     -5.29004095	     -9.05230025	    -13.33584272	     15.44320800	      3.17832698	      4.30791946	     -1.05687576	     13.03697253
      0.22000000	     -9.92880494	      3.49985743	    -31.12254522	     -1.51181566	      0.88320661	     -0.25210671	      9.75897786	     -1.01653479	      1.36741415	     -6.74028184	     12.02110846	      2.36985774	      9.90457468	     -5.26214580	     -9.02790365	    -13.24146880	     15.41997739	      3.19491991	      4.29390749	     -1.06354579	     12.93810589
      0.23000000	     -9.93929593	      3.51204074	    -31.09209791	     -1.51179958	      0.88316818	     -0.25209477	      9.77934447	     -1.02405216	      1.37805389	     -6.75684154	     12.02984769	      2.36550213	      9.88491426	     -5.25283808	     -9.04826363	    -13.17023807	     15.42135072	      3.19961131	      4.28574006	     -1.05526960	     12.84382525
      0.24000000	     -9.94033306	      3.53859196	    -31.02529298	     -1.51171663	      0.88313922	     -0.25214033	      9.79727446	     -1.05937034	      1.32277569	     -6.78489559	     12.08157474	      2.34368041	      9.84568560	     -5.20791991	     -8.96831881	    -13.04999981	     15.36852906	      3.22701503	      4.27783237	     -1.06887616	     12.72694262
